HIERARCHY
ROOT Pelvis
{
	OFFSET 0.000000 0.941512 0.000000
	CHANNELS 6 Xposition Yposition Zposition Zrotation Yrotation Xrotation 
	JOINT Pelvis_L_Hip
	{
		OFFSET 0.000000 0.000000 0.000000
		CHANNELS 3 Zrotation Yrotation Xrotation
		JOINT L_Hip
		{
			OFFSET 0.062321 -0.080322 -0.016990
			CHANNELS 3 Zrotation Yrotation Xrotation
			JOINT L_Knee
			{
				OFFSET 0.093051 -0.381305 -0.029784
				CHANNELS 3 Zrotation Yrotation Xrotation
				JOINT L_Ankle
				{
					OFFSET -0.010371 -0.431000 -0.033614
					CHANNELS 3 Zrotation Yrotation Xrotation
					End Site #name: L_Foot
					{
						OFFSET 0.069299 -0.038670 0.119418
					}
				}
			}
		}
	}
	JOINT Pelvis_R_Hip
	{
		OFFSET 0.000000 0.000000 0.000000
		CHANNELS 3 Zrotation Yrotation Xrotation
		JOINT R_Hip
		{
			OFFSET -0.055334 -0.094904 -0.002373
			CHANNELS 3 Zrotation Yrotation Xrotation
			JOINT R_Knee
			{
				OFFSET -0.064207 -0.384370 -0.019592
				CHANNELS 3 Zrotation Yrotation Xrotation
				JOINT R_Ankle
				{
					OFFSET 0.025418 -0.419734 -0.065953
					CHANNELS 3 Zrotation Yrotation Xrotation
					End Site #name: R_Foot
					{
						OFFSET -0.057233 -0.039888 0.132134
					}
				}
			}
		}
	}
	JOINT Pelvis_Spine1
	{
		OFFSET 0.000000 0.000000 0.000000
		CHANNELS 3 Zrotation Yrotation Xrotation
		JOINT Spine1
		{
			OFFSET -0.005562 0.124093 -0.043360
			CHANNELS 3 Zrotation Yrotation Xrotation
			JOINT Spine2
			{
				OFFSET 0.012244 0.139499 0.029894
				CHANNELS 3 Zrotation Yrotation Xrotation
				JOINT Spine3
				{
					OFFSET -0.002556 0.056561 0.009225
					CHANNELS 3 Zrotation Yrotation Xrotation
					JOINT Spine3_Neck
					{
						OFFSET 0.000000 0.000000 0.000000
						CHANNELS 3 Zrotation Yrotation Xrotation
						JOINT Neck
						{
							OFFSET -0.005205 0.217920 -0.024551
							CHANNELS 3 Zrotation Yrotation Xrotation
							End Site #name: Head
							{
								OFFSET 0.002365 0.091850 0.046637
							}
						}
					}
					JOINT Spine3_L_Collar
					{
						OFFSET 0.000000 0.000000 0.000000
						CHANNELS 3 Zrotation Yrotation Xrotation
						JOINT L_Collar
						{
							OFFSET 0.072225 0.116603 -0.009480
							CHANNELS 3 Zrotation Yrotation Xrotation
							JOINT L_Shoulder
							{
								OFFSET 0.115937 -0.058643 -0.021018
								CHANNELS 3 Zrotation Yrotation Xrotation
								JOINT L_Elbow
								{
									OFFSET 0.021994 -0.254722 -0.024492
									CHANNELS 3 Zrotation Yrotation Xrotation
									End Site #name: L_Wrist
									{
										OFFSET 0.048810 -0.240214 0.103329
									}
								}
							}
						}
					}
					JOINT Spine3_R_Collar
					{
						OFFSET 0.000000 0.000000 0.000000
						CHANNELS 3 Zrotation Yrotation Xrotation
						JOINT R_Collar
						{
							OFFSET -0.073372 0.120704 -0.024611
							CHANNELS 3 Zrotation Yrotation Xrotation
							JOINT R_Shoulder
							{
								OFFSET -0.108089 -0.054969 -0.020504
								CHANNELS 3 Zrotation Yrotation Xrotation
								JOINT R_Elbow
								{
									OFFSET -0.033684 -0.260739 0.009889
									CHANNELS 3 Zrotation Yrotation Xrotation
									End Site #name: R_Wrist
									{
										OFFSET -0.067980 -0.232763 0.118463
									}
								}
							}
						}
					}
				}
			}
		}
	}
}
MOTION
Frames: 15
Frame Time: 0.041667
0.011500 0.958169 0.037586 -0.483362 1.759153 6.058040 0.000000 0.000000 0.000000 -4.739288 -0.616824 -3.669041 9.585132 -0.842424 0.891085 -5.406807 -13.401015 1.965732 0.000000 0.000000 0.000000 2.404143 0.307133 -2.375031 -5.383980 0.879278 0.221988 1.577039 1.072664 2.890831 0.000000 0.000000 0.000000 5.157521 1.522649 -20.272328 -10.556068 7.673591 39.668520 -0.699895 0.508248 -33.479596 0.000000 0.000000 0.000000 7.371174 -8.739413 38.433038 0.000000 0.000000 0.000000 32.409726 -13.362407 -5.045233 14.248410 -1.908391 23.133391 -41.994654 -38.469911 -20.553467 0.000000 0.000000 0.000000 -56.110263 10.282826 3.324634 -24.610786 0.445413 22.143884 21.088314 19.993323 -12.673150 
0.009254 0.959120 0.035156 -0.100921 2.236824 5.792608 0.000000 0.000000 0.000000 -5.009069 -0.645589 -3.818618 9.490095 -0.871025 1.256528 -5.477092 -13.515308 2.007215 0.000000 0.000000 0.000000 2.009541 0.312249 -2.306009 -5.123788 0.892311 0.726527 1.271137 0.865828 2.356828 0.000000 0.000000 0.000000 4.953647 1.452876 -19.655941 -10.665578 7.832845 40.678010 -0.216937 0.933482 -34.153045 0.000000 0.000000 0.000000 6.493247 -7.725071 36.864488 0.000000 0.000000 0.000000 31.495387 -13.305843 -5.002162 15.191680 -2.149185 22.919129 -42.194876 -38.888686 -20.696917 0.000000 0.000000 0.000000 -53.092031 10.326902 2.151596 -20.166309 0.122690 27.422464 27.439552 31.063879 -19.487765 
0.006933 0.959128 0.032843 0.146492 2.717571 5.970476 0.000000 0.000000 0.000000 -5.102496 -0.800663 -4.385742 9.414706 -0.901851 1.622306 -5.632344 -13.745169 2.124655 0.000000 0.000000 0.000000 1.709952 0.380952 -2.610356 -4.806695 0.875578 1.062317 1.034126 0.616810 2.002998 0.000000 0.000000 0.000000 4.929480 1.407176 -19.299341 -10.595791 7.792135 41.112808 0.440116 1.448970 -34.935544 0.000000 0.000000 0.000000 5.175630 -6.392929 35.558393 0.000000 0.000000 0.000000 30.770164 -12.699282 -4.428823 15.228242 -2.142375 22.836131 -42.021270 -39.079776 -21.009567 0.000000 0.000000 0.000000 -49.640072 10.040301 1.399531 -16.455569 -0.442094 31.142833 33.533635 41.194644 -23.560921 
0.004476 0.958825 0.032379 0.372337 3.123784 6.238314 0.000000 0.000000 0.000000 -5.141963 -0.892604 -4.725257 9.300612 -0.890562 1.636122 -5.721961 -13.907233 2.175444 0.000000 0.000000 0.000000 1.449168 0.399928 -2.659528 -4.540345 0.822397 0.968622 0.899997 0.477677 1.800959 0.000000 0.000000 0.000000 4.808281 1.437814 -19.519916 -10.296185 7.665257 41.791703 1.204562 2.125231 -35.841705 0.000000 0.000000 0.000000 3.684231 -4.953652 34.101813 0.000000 0.000000 0.000000 29.524178 -11.817630 -3.685774 15.418616 -2.203131 23.128722 -41.506119 -39.199570 -21.570351 0.000000 0.000000 0.000000 -45.256995 9.747658 0.482425 -15.051102 -0.598062 35.682228 39.958669 51.369730 -26.297095 
0.002661 0.957982 0.032934 0.689793 3.613552 6.630738 0.000000 0.000000 0.000000 -5.204050 -1.078271 -5.395508 9.114984 -0.917524 2.074936 -5.832448 -14.259677 2.173499 0.000000 0.000000 0.000000 1.035666 0.435608 -2.773016 -4.233951 0.757504 0.815874 0.708175 0.057763 1.669362 0.000000 0.000000 0.000000 5.067948 1.444689 -19.713318 -10.442393 7.678353 41.803585 1.737158 2.490994 -37.037349 0.000000 0.000000 0.000000 2.403751 -3.830108 33.588554 0.000000 0.000000 0.000000 29.048979 -11.086459 -3.032379 15.169672 -2.173305 23.902973 -41.276216 -39.451617 -21.989284 0.000000 0.000000 0.000000 -41.845167 9.024697 0.436952 -13.776492 -0.791739 40.185284 45.931482 61.207118 -28.753684 
0.001393 0.957784 0.033620 1.060316 3.929544 6.746257 0.000000 0.000000 0.000000 -5.441648 -1.135093 -5.629414 9.007102 -0.942855 2.428442 -5.907265 -14.617352 2.122288 0.000000 0.000000 0.000000 0.642306 0.442724 -2.733362 -4.078851 0.743536 0.932972 0.487378 -0.330230 1.435136 0.000000 0.000000 0.000000 5.099521 1.473653 -19.983867 -10.009432 7.450924 42.290935 1.963397 2.509167 -37.431440 0.000000 0.000000 0.000000 1.532372 -2.968749 32.284825 0.000000 0.000000 0.000000 28.294210 -9.978057 -2.150984 14.975667 -2.108392 23.857976 -40.674333 -39.301595 -22.421051 0.000000 0.000000 0.000000 -39.417828 7.837772 1.145750 -12.565858 -1.078731 43.206454 48.098897 68.217550 -32.619252 
-0.000049 0.957702 0.033738 1.101124 3.994991 6.826509 0.000000 0.000000 0.000000 -5.385388 -1.192219 -5.821257 8.999041 -0.974198 2.737186 -5.892742 -14.769943 2.035226 0.000000 0.000000 0.000000 0.597221 0.471768 -2.890596 -3.939501 0.746754 1.216727 0.370662 -0.456487 1.247173 0.000000 0.000000 0.000000 5.100575 1.506720 -20.260316 -9.651540 7.288572 42.687225 2.144009 2.579693 -38.010454 0.000000 0.000000 0.000000 1.112259 -2.541116 31.434203 0.000000 0.000000 0.000000 27.990361 -9.499716 -1.781457 14.933167 -2.089802 23.886179 -41.012880 -39.445359 -22.164995 0.000000 0.000000 0.000000 -37.799027 6.981304 1.665489 -11.006517 -1.557665 45.440020 46.939896 71.543836 -36.749408 
-0.000734 0.958180 0.032743 0.790532 3.641955 6.764611 0.000000 0.000000 0.000000 -5.107417 -1.146208 -5.621075 9.086937 -0.969685 2.594409 -5.693638 -14.497836 1.871124 0.000000 0.000000 0.000000 0.788701 0.494223 -3.058666 -3.815610 0.745514 1.440126 0.503635 -0.036364 1.247552 0.000000 0.000000 0.000000 5.264828 1.481386 -20.095600 -9.205396 7.082767 42.684497 2.370721 2.667502 -38.545830 0.000000 0.000000 0.000000 0.766546 -2.171100 30.848702 0.000000 0.000000 0.000000 27.681908 -9.104457 -1.526606 15.368092 -2.201300 23.823663 -41.343824 -39.807527 -22.133570 0.000000 0.000000 0.000000 -36.463213 6.429991 1.964008 -10.879232 -1.582951 46.620633 41.479114 71.611055 -42.534446 
-0.001683 0.957145 0.033074 0.683960 3.547613 6.769528 0.000000 0.000000 0.000000 -4.903126 -1.136250 -5.558114 9.039609 -0.960623 2.549750 -5.621679 -14.539875 1.751586 0.000000 0.000000 0.000000 0.873376 0.484344 -3.019087 -3.694914 0.715258 1.339069 0.461904 0.001162 1.117195 0.000000 0.000000 0.000000 4.938379 1.522980 -20.306244 -8.423826 6.623144 42.602805 2.601334 2.431811 -38.379734 0.000000 0.000000 0.000000 0.575478 -1.908982 30.146756 0.000000 0.000000 0.000000 28.219701 -9.363394 -1.725398 15.877518 -2.312649 23.357284 -41.134406 -40.056462 -22.621886 0.000000 0.000000 0.000000 -36.112109 6.095096 2.299075 -12.399797 -1.045655 46.314724 41.200116 71.383016 -42.556432 
-0.003198 0.956640 0.032436 0.467628 3.344049 6.687495 0.000000 0.000000 0.000000 -4.579242 -1.163631 -5.604467 9.046477 -0.982943 2.747145 -5.683048 -14.414439 1.897753 0.000000 0.000000 0.000000 1.088292 0.502498 -3.162550 -3.605516 0.716718 1.528870 0.547514 0.190519 1.179091 0.000000 0.000000 0.000000 5.085562 1.477314 -19.975568 -8.035231 6.343320 41.963986 2.831966 2.226513 -38.180497 0.000000 0.000000 0.000000 0.238893 -1.543343 29.577404 0.000000 0.000000 0.000000 29.861925 -10.694907 -2.724167 16.171275 -2.336461 22.588430 -37.134374 -37.426040 -23.937221 0.000000 0.000000 0.000000 -36.746085 6.860988 1.780416 -12.504060 -1.007404 46.441066 41.686556 71.494359 -42.182182 
-0.004477 0.956926 0.030723 0.081919 3.110561 6.593754 0.000000 0.000000 0.000000 -4.244066 -1.201849 -5.689762 9.241681 -1.020415 2.897779 -5.707242 -14.054620 2.092544 0.000000 0.000000 0.000000 1.563310 0.538948 -3.447771 -3.648030 0.754082 1.862419 0.659895 0.510959 1.207070 0.000000 0.000000 0.000000 4.689182 1.464397 -19.691646 -6.633314 5.505371 41.504000 3.113657 2.121442 -37.725362 0.000000 0.000000 0.000000 -0.591731 -0.807942 29.001659 0.000000 0.000000 0.000000 32.287480 -11.498667 -3.156377 16.135300 -2.134156 20.044018 -27.761784 -31.030721 -26.946920 0.000000 0.000000 0.000000 -37.241369 7.580164 1.239099 -12.345966 -1.072395 46.365255 39.650556 71.385317 -44.349995 
-0.006510 0.956993 0.028873 -0.165932 2.983300 6.436277 0.000000 0.000000 0.000000 -3.977962 -1.188545 -5.600071 9.436172 -1.026303 2.758700 -5.883216 -13.838616 2.445298 0.000000 0.000000 0.000000 1.947345 0.554814 -3.594293 -3.658735 0.778561 2.112137 0.682948 0.808952 1.042525 0.000000 0.000000 0.000000 4.536158 1.410742 -19.165004 -5.866789 4.996589 40.728498 3.388812 1.777882 -37.211592 0.000000 0.000000 0.000000 -1.369753 -0.103579 28.395675 0.000000 0.000000 0.000000 35.015147 -12.694019 -4.029887 17.712930 -2.190650 16.041081 -20.060964 -22.137353 -23.893410 0.000000 0.000000 0.000000 -37.403510 7.779106 1.185423 -12.201790 -1.132651 46.298639 37.488569 70.976698 -46.443687 
-0.008941 0.956623 0.027133 -0.294455 2.906598 6.480227 0.000000 0.000000 0.000000 -3.744359 -1.264174 -5.841598 9.543722 -1.044118 2.816578 -5.808963 -13.596281 2.444639 0.000000 0.000000 0.000000 2.364619 0.635358 -4.084936 -3.778037 0.839168 2.538535 0.576292 0.775600 0.813848 0.000000 0.000000 0.000000 4.126488 1.383521 -18.736621 -4.906551 4.414034 40.258570 3.443128 0.920723 -37.262882 0.000000 0.000000 0.000000 -1.628047 0.229818 28.152580 0.000000 0.000000 0.000000 37.401114 -14.703110 -6.001267 20.903505 -2.485708 12.415889 -17.495818 -15.391774 -15.400037 0.000000 0.000000 0.000000 -37.191032 7.523758 1.619237 -12.949273 -0.888430 45.588717 38.015687 71.352178 -46.166458 
-0.011250 0.956745 0.025867 -0.382844 2.353826 6.210247 0.000000 0.000000 0.000000 -3.667136 -1.190925 -5.548198 9.727396 -1.059160 2.759192 -5.613163 -12.935908 2.463054 0.000000 0.000000 0.000000 2.673928 0.734596 -4.647845 -4.006873 0.987712 3.670459 0.644655 1.421977 0.509530 0.000000 0.000000 0.000000 3.309502 1.377525 -18.244986 -3.182823 3.560714 40.865739 3.127075 -0.428915 -37.664035 0.000000 0.000000 0.000000 -1.488462 0.340708 26.926054 0.000000 0.000000 0.000000 39.129904 -18.077161 -9.826037 23.358403 -2.697062 10.538013 -17.483594 -7.678251 0.901723 0.000000 0.000000 0.000000 -36.128318 7.320248 1.928964 -14.204706 -0.490318 44.478440 38.149409 71.597397 -46.139054 
-0.013314 0.957721 0.023237 -0.659772 1.574895 6.212360 0.000000 0.000000 0.000000 -3.442251 -1.170182 -5.427963 10.019474 -1.077123 2.624120 -5.516466 -12.094644 2.719931 0.000000 0.000000 0.000000 3.172540 0.918170 -5.649718 -4.225629 1.158466 4.985875 0.817060 2.321648 0.280858 0.000000 0.000000 0.000000 2.487538 1.309065 -17.102931 -1.339413 2.555468 39.952069 2.789090 -2.029613 -37.346313 0.000000 0.000000 0.000000 -1.615595 0.673995 25.753162 0.000000 0.000000 0.000000 40.845063 -21.544979 -14.096796 22.291982 -2.374119 9.406201 -6.971007 2.243854 19.573036 0.000000 0.000000 0.000000 -35.640071 7.561329 1.987207 -13.767543 -0.648873 44.432061 34.547716 70.910703 -49.657139 
